<?xml version="1.0" encoding="utf-8"?>
<!-- Generator: Adobe Illustrator 23.0.1, SVG Export Plug-In . SVG Version: 6.00 Build 0)  -->
<svg version="1.1" xmlns="http://www.w3.org/2000/svg" xmlns:xlink="http://www.w3.org/1999/xlink" x="0px" y="0px"
	 viewBox="0 0 18 18" style="enable-background:new 0 0 18 18;" xml:space="preserve">
<style type="text/css">
	.st0{fill:#75AADB;}
	.st1{fill:#4D4D4D;}
	.st2{fill:#FFFFFF;}
	.st3{fill:url(#SVGID_1_);}
	.st4{fill:url(#SVGID_2_);}
	.st5{fill:url(#SVGID_3_);}
	.st6{fill:url(#SVGID_4_);}
	.st7{fill:url(#SVGID_5_);}
	.st8{fill:url(#SVGID_6_);}
	.st9{fill:url(#SVGID_7_);}
	.st10{fill:url(#SVGID_8_);}
	.st11{opacity:0.3;}
	.st12{fill:url(#SVGID_9_);}
	.st13{fill:url(#SVGID_10_);}
	.st14{fill:#FDFEFF;}
	.st15{fill:#6AAAE4;}
	.st16{fill:#4A4F54;}
	.st17{fill:#470054;}
</style>
<g id="Gray_Logo">
</g>
<g id="Black_Letters">
</g>
<g id="Blue_Gradient_Letters">
	<g>
		<circle class="st0" cx="9" cy="9" r="9"/>
		<g>
			<g>
				<path class="st2" d="M12.1,11.9h1v0.8h-1.5L9.1,8.9H7.8v2.9h1.3v0.8H5.8v-0.8h1.1V5.4L5.8,5.2V4.5c0.4,0.1,0.8,0.2,1.2,0.2
					c0.7,0,1.4-0.2,2.1-0.2c1.3,0,2.6,0.6,2.6,2.1c0,1.2-0.7,1.9-1.8,2.2L12.1,11.9z M7.8,8.2l0.7,0c1.7,0,2.4-0.6,2.4-1.5
					c0-1-0.7-1.4-1.7-1.4c-0.4,0-0.9,0-1.4,0.1V8.2z"/>
			</g>
		</g>
	</g>
</g>
<g id="White_Letters">
</g>
<g id="R_Ball">
</g>
</svg>
